<svg width="34" height="37" viewBox="0 0 34 37" fill="none" xmlns="http://www.w3.org/2000/svg">
<path d="M17.7715 9.84422L17 10.5L16.5347 10.0837C12.0747 6.09312 5.01904 7.61481 2.60022 13.089L2.41509 13.508C-0.272383 19.5901 0.853453 26.6827 5.29227 31.6337L7.26133 33.8299C9.31943 36.1255 12.8558 36.2988 15.1285 34.2155C16.1874 33.2449 17.8126 33.2449 18.8715 34.2155C21.1442 36.2988 24.6806 36.1255 26.7387 33.8299L28.7771 31.5564C33.1887 26.6357 34.3738 19.6152 31.8219 13.5191L31.6768 13.1725C29.3623 7.64329 22.3386 5.96218 17.7715 9.84422Z" stroke="black" stroke-width="1.5"/>
<path d="M17 9.5C17 7 18.3 1.8 23.5 1C24 3.33333 23.4 8.3 17 9.5Z" stroke="black" stroke-width="1.5"/>
<path d="M17 10C17 8 16.1 3.9 12.5 3.5" stroke="black"/>
</svg>
